<svg xmlns="http://www.w3.org/2000/svg" width="1200" height="430" viewBox="0 0 1200 430" role="img" aria-labelledby="title desc">
  <title id="title">GlobeTrotter — a travel product that survives the demo</title>
  <desc id="desc">A persistent collaborative travel workspace with 55 destinations, 390 activities, three navigation languages, keyless maps, and no required paid API keys.</desc>
  <defs>
    <pattern id="grid" width="32" height="32" patternUnits="userSpaceOnUse">
      <path d="M32 0H0V32" fill="none" stroke="#D2E1E9" stroke-width="1"/>
    </pattern>
    <linearGradient id="signalFade" x1="0" x2="1">
      <stop offset="0" stop-color="#2D6CDF"/>
      <stop offset=".58" stop-color="#7158D9"/>
      <stop offset="1" stop-color="#FF705D"/>
    </linearGradient>
    <style>
      .display { font-family: "Arial Narrow", "Avenir Next Condensed", "Roboto Condensed", sans-serif; font-weight: 850; letter-spacing: -1.8px; }
      .body { font-family: -apple-system, BlinkMacSystemFont, "Segoe UI", sans-serif; }
      .mono { font-family: ui-monospace, SFMono-Regular, Menlo, Consolas, monospace; letter-spacing: 1.5px; }
      
    </style>
  </defs>
  <rect width="1200" height="430" rx="32" fill="#F3F7FA"/>
  <rect x="18" y="18" width="1164" height="394" rx="22" fill="url(#grid)" opacity=".78"/>
  <rect x="18.5" y="18.5" width="1163" height="393" rx="22" fill="none" stroke="#B6CAD6"/>
  
  <text x="58" y="65" class="mono" font-size="14" font-weight="800" fill="#2D6CDF">FEATURED TRACE / 02 / FULL-STACK PRODUCT</text>
  <text x="58" y="123" class="display" font-size="50" fill="#10243C">GLOBETROTTER</text>
  <text x="58" y="169" class="display" font-size="35" fill="#2D6CDF">A TRAVEL PRODUCT THAT SURVIVES THE DEMO.</text>

  <g transform="translate(58 212)">
    <path d="M14 70H163L205 25H363L410 94H567L620 47H768" fill="none" stroke="#B6CAD6" stroke-width="9" stroke-linecap="round" stroke-linejoin="round"/>
    <path d="M14 70H163L205 25H363L410 94H567L620 47H768" fill="none" stroke="url(#signalFade)" stroke-width="4" stroke-linecap="round" stroke-linejoin="round"/>
    <g><circle cx="14" cy="70" r="10" fill="#FF705D"/><text x="14" y="132" class="mono" font-size="11" font-weight="800" text-anchor="middle" fill="#536C7E">IDEA</text></g>
    <g><circle cx="205" cy="25" r="10" fill="#F3F7FA" stroke="#2D6CDF" stroke-width="4"/><text x="205" y="132" class="mono" font-size="11" font-weight="800" text-anchor="middle" fill="#536C7E">PLAN</text></g>
    <g><circle cx="410" cy="94" r="10" fill="#F3F7FA" stroke="#7158D9" stroke-width="4"/><text x="410" y="132" class="mono" font-size="11" font-weight="800" text-anchor="middle" fill="#536C7E">COLLABORATE</text></g>
    <g><circle cx="620" cy="47" r="10" fill="#178F7F"/><text x="620" y="132" class="mono" font-size="11" font-weight="800" text-anchor="middle" fill="#536C7E">PUBLISH</text></g>
    <g><circle cx="768" cy="47" r="10" fill="#2D6CDF"/><text x="768" y="132" class="mono" font-size="11" font-weight="800" text-anchor="middle" fill="#536C7E">COPY</text></g>
  </g>

  <g transform="translate(862 66)">
    <rect width="280" height="270" rx="20" fill="#DDE9F0"/>
    <text x="24" y="38" class="mono" font-size="12" font-weight="800" fill="#536C7E">PRODUCT PAYLOAD</text>
    <text x="24" y="102" class="display" font-size="49" fill="#2D6CDF">55</text>
    <text x="100" y="100" class="mono" font-size="12" font-weight="750" fill="#536C7E">DESTINATIONS</text>
    <text x="24" y="163" class="display" font-size="49" fill="#7158D9">390</text>
    <text x="125" y="161" class="mono" font-size="12" font-weight="750" fill="#536C7E">ACTIVITIES</text>
    <text x="24" y="218" class="display" font-size="34" fill="#178F7F">3</text>
    <text x="66" y="216" class="mono" font-size="12" font-weight="750" fill="#536C7E">NAV LANGUAGES</text>
    <rect x="24" y="234" width="232" height="5" rx="2.5" fill="url(#signalFade)"/>
  </g>

  <rect x="58" y="358" width="498" height="40" rx="20" fill="#E8F0F5"/>
  <text x="82" y="383" class="mono" font-size="12" font-weight="850" fill="#178F7F">NO REQUIRED PAID API KEYS / CORE JOURNEY PERSISTS</text>
  <text x="1142" y="383" class="mono" font-size="12" font-weight="750" text-anchor="end" fill="#536C7E">LAUNCH WORKSPACE →</text>

</svg>
